<svg xmlns="http://www.w3.org/2000/svg" xmlns:xlink="http://www.w3.org/1999/xlink" id="svg_canvas" data-noselect="" viewBox="150 230 500 130" width="500" height="130" preserveAspectRatio="none" version="1.1"><defs/>  <g id="shape_zccIBZ2ujf" transform="translate(167.00000000000014,234.78906023951595) rotate(0,60.586151261273876,60.586151261273876) scale(1,1)" filter="" style="opacity: 1;"><g><rect fill="rgba(0,0,0,0)" width="128.64819780222146" height="141.17230252254774" x="-10" y="-10"/><svg xmlns="http://www.w3.org/2000/svg" xmlns:xlink="http://www.w3.org/1999/xlink" version="1.1" id="图层_1" x="0px" y="0px" style="enable-background:new 0 0 283.465 283.465;" xml:space="preserve" viewBox="28.0234375 15.58203125 226.9765625 253.140625" width="108.64819780222146" height="121.17230252254775" class="style-removed" preserveAspectRatio="none" data-parent="shape_zccIBZ2ujf">
<g>
	<linearGradient id="SVGID_1_" gradientUnits="userSpaceOnUse" x1="58.3783" y1="166.8365" x2="66.5811" y2="-52.7944">
		<stop offset="0" stop-color="#653089"/>
		<stop offset="1" stop-color="#EB2179"/>
	</linearGradient>
	<path d="M96.133,36.973   C76.618,47.629,55.798,59.092,40.811,69.752c-14.283,10.151-13.076,18.396-12.472,52.383c8.549,31.071,28.263,64.047,57.635,79.937   C44.63,163.866,46.244,84.328,96.133,36.973L96.133,36.973z" fill-rule="evenodd" clip-rule="evenodd" fill="url(#SVGID_1_)"/>
	<linearGradient id="SVGID_2_" gradientUnits="userSpaceOnUse" x1="90.6587" y1="308.33" x2="152.6192" y2="-37.7647">
		<stop offset="0" stop-color="#2F2C6C"/>
		<stop offset="0.2247" stop-color="#332C6E"/>
		<stop offset="0.4388" stop-color="#3E2D72"/>
		<stop offset="0.6487" stop-color="#512D7A"/>
		<stop offset="0.8547" stop-color="#6C2E85"/>
		<stop offset="1" stop-color="#842F8E"/>
	</linearGradient>
	<path d="M137.168,210.823   c-16.901-0.996-32.186-8.148-43.552-19.204c-12.977-12.575-20.927-30.066-20.927-49.473c0-3.922,0.307-7.843,0.912-11.566   c3.222-27.442,14.082-47.253,29.27-60.728c27.052-24.028,67.59-28.551,102.489-22.017c-12.467-7.039-24.941-13.979-37.01-21.117   c-23.239-13.881-28.266-14.783-49.083-2.717c-4.231,2.518-8.753,5.031-13.478,7.646c-3.121,1.714-6.439,3.515-9.655,5.325   C46.244,84.328,44.63,163.866,85.974,202.072c2.109,1.109,4.321,2.208,6.533,3.219   C105.682,211.022,120.671,213.331,137.168,210.823L137.168,210.823z" fill-rule="evenodd" clip-rule="evenodd" fill="url(#SVGID_2_)"/>
	<linearGradient id="SVGID_3_" gradientUnits="userSpaceOnUse" x1="217.3959" y1="195.4722" x2="22.7329" y2="296.9313">
		<stop offset="0" stop-color="#E92429"/>
		<stop offset="0.1071" stop-color="#EA3028"/>
		<stop offset="0.3013" stop-color="#EC5027"/>
		<stop offset="0.5605" stop-color="#F08425"/>
		<stop offset="0.8714" stop-color="#F5CB21"/>
		<stop offset="1" stop-color="#F7EB20"/>
	</linearGradient>
	<path d="M72.689,233.852   c16.503,9.643,33.599,19.196,49.495,28.145c15.887,8.851,22.221,8.952,37.813,0.398c6.137-3.317,12.475-6.832,18.912-10.457   c23.734-23.116,43.547-58.015,42.242-92.498C209.18,214.842,138.975,253.655,72.689,233.852L72.689,233.852z" fill-rule="evenodd" clip-rule="evenodd" fill="url(#SVGID_3_)"/>
	<linearGradient id="SVGID_4_" gradientUnits="userSpaceOnUse" x1="278.1027" y1="199.4177" x2="48.768" y2="156.2901">
		<stop offset="0" stop-color="#44205A"/>
		<stop offset="1" stop-color="#F05825"/>
	</linearGradient>
	<path d="M203.249,111.584c4.52,9.245,7.137,19.603,7.137,30.563   c0,6.336-0.799,12.364-2.413,18.195c-5.929,21.524-21.925,38.809-42.645,46.451c-25.145,10.863-47.574,11.268-66.683,5.031   c-33.896-10.959-57.934-42.928-70.102-75.816c0,2.017,0.099,4.029,0.099,6.139c0,55.598-5.331,61.839,16.898,75.509   c5.834,3.625,11.767,7.139,17.904,10.762c3.015,1.813,6.136,3.613,9.246,5.435c66.286,19.803,136.491-19.011,148.463-74.411   c0-1.712-0.202-3.424-0.299-5.126C219.336,139.532,214.007,125.058,203.249,111.584L203.249,111.584z" fill-rule="evenodd" clip-rule="evenodd" fill="url(#SVGID_4_)"/>
	<linearGradient id="SVGID_5_" gradientUnits="userSpaceOnUse" x1="324.1924" y1="146.2298" x2="138.1526" y2="56.8808">
		<stop offset="0" stop-color="#63C9EE"/>
		<stop offset="0.3226" stop-color="#2E99D4"/>
		<stop offset="0.6989" stop-color="#4463AA"/>
		<stop offset="1" stop-color="#364E9E"/>
	</linearGradient>
	<path d="M254.543,153.007   c-0.105-3.416-0.105-7.041-0.105-10.861c0-54.798,5.134-61.642-16.093-75.004c-6.63-4.23-13.574-8.248-20.612-12.269   c-31.685-8.848-71.31-8.65-100.58,9.345C170.354,47.725,237.345,87.644,254.543,153.007L254.543,153.007z" fill-rule="evenodd" clip-rule="evenodd" fill="url(#SVGID_5_)"/>
	<linearGradient id="SVGID_6_" gradientUnits="userSpaceOnUse" x1="151.1851" y1="128.5749" x2="346.2749" y2="274.1668">
		<stop offset="0" stop-color="#2D388C"/>
		<stop offset="0.1425" stop-color="#334693"/>
		<stop offset="0.4097" stop-color="#4469A7"/>
		<stop offset="0.7698" stop-color="#60A3C5"/>
		<stop offset="1" stop-color="#73CBDB"/>
	</linearGradient>
	<path d="M141.49,73.271c16.698,0,32.091,5.938,43.954,15.888   c22.023,16.286,33.696,35.492,37.916,55.204c7.644,35.791-9.052,73.698-32.587,100.845c15.897-9.046,31.886-18.404,46.364-27.344   c18.912-11.576,18.313-17.703,17.602-51.689c-0.097-3.922-0.197-8.347-0.197-13.167c-17.198-65.363-84.189-105.282-137.39-88.789   c-1.611,1.011-3.117,2.012-4.628,3.121c-12.069,8.652-22.03,20.61-28.366,36.702c9.252-13.873,23.439-24.237,40.033-28.563   C129.723,74.08,135.563,73.271,141.49,73.271L141.49,73.271z" fill-rule="evenodd" clip-rule="evenodd" fill="url(#SVGID_6_)"/>
	<g>
		<path d="M159.746,94.755l-7.684,34.973h22.145l9.795-34.973H159.746z M149.356,142.106    c-2.11,9.904-4.07,19.965-5.728,30.171h-0.296c-1.662-10.37-3.62-20.267-5.726-30.171H115.16l14.612,54.002h25.91l15.063-54.002    H149.356z M134.893,129.728l-7.834-34.973h-24.703l9.489,34.973H134.893z" fill="#0F152A"/>
	</g>
</g>
</svg></g></g><g id="shape_MpXQkYjDFK" transform="translate(237.52523812347903,212.33681150078965) rotate(0,300.95277435039606,79.0384) scale(1,1)" filter="" style="opacity: 1;"><g><svg xmlns="http://www.w3.org/2000/svg" xmlns:xlink="http://www.w3.org/1999/xlink" version="1.1" width="601.9055487007921" height="158.0768" viewBox="0 0 601.9055487007921 158.0768" data-parent="shape_MpXQkYjDFK"><rect fill="rgba(0,0,0,0)" width="496.54554870079215" height="52" x="52.68" y="53.038399999999996"/>
    <g data-width="342.8229958945017" transform="translate(52.68, 0)"><path d="M20.44 0.68L20.44 0.68Q15.38 0.68 11.46-1.69Q7.53-4.06 5.29-8.53Q3.06-13.01 3.06-19.28L3.06-19.28Q3.06-25.55 5.35-30.03Q7.64-34.51 11.64-36.93Q15.65-39.35 20.76-39.35L20.76-39.35Q24.81-39.35 27.53-37.88Q30.24-36.40 31.87-34.56L31.87-34.56L29.24-31.40Q27.82-32.98 25.81-34.03Q23.81-35.08 20.86-35.08L20.86-35.08Q15.07-35.08 11.56-30.87Q8.06-26.66 8.06-19.44L8.06-19.44Q8.06-12.12 11.38-7.85Q14.70-3.58 20.91-3.58L20.91-3.58Q25.13-3.58 27.92-5.85L27.92-5.85L27.92-15.96L19.75-15.96L19.75-20.02L32.40-20.02L32.40-3.79Q30.50-1.84 27.42-0.58Q24.34 0.68 20.44 0.68Z" transform="translate(0 99.0384) " fill="rgb(255, 255, 255)" stroke="rgb(255, 255, 255)" stroke-linecap="square" stroke-linejoin="square" stroke-width="1.756" data-glyph-w="38.296683263136515" data-glyph-h="52.68" data-glyph-ascender="46.358399999999996" data-glyph-descender="-6.3216"/><path d="M9.64 0L4.85 0L4.85-28.61L8.80-28.61L9.22-23.39L9.38-23.39Q10.90-26.13 12.99-27.74Q15.07-29.34 17.49-29.34L17.49-29.34Q19.39-29.34 20.55-28.71L20.55-28.71L19.65-24.50Q18.96-24.76 18.36-24.86Q17.75-24.97 16.86-24.97L16.86-24.97Q15.07-24.97 13.09-23.50Q11.12-22.02 9.64-18.39L9.64-18.39L9.64 0Z" transform="translate(38.296683263136515 99.0384) " fill="rgb(255, 255, 255)" stroke="rgb(255, 255, 255)" stroke-linecap="square" stroke-linejoin="square" stroke-width="1.756" data-glyph-w="22.440003263136514" data-glyph-h="52.68" data-glyph-ascender="46.358399999999996" data-glyph-descender="-6.3216"/><path d="M11.43 0.68L11.43 0.68Q7.85 0.68 5.45-1.45Q3.06-3.58 3.06-7.43L3.06-7.43Q3.06-12.12 7.32-14.62Q11.59-17.12 20.65-18.12L20.65-18.12Q20.65-19.97 20.15-21.63Q19.65-23.28 18.39-24.31Q17.12-25.34 14.75-25.34L14.75-25.34Q12.27-25.34 10.09-24.42Q7.90-23.50 6.16-22.28L6.16-22.28L4.27-25.60Q6.27-26.92 9.19-28.13Q12.12-29.34 15.54-29.34L15.54-29.34Q20.76-29.34 23.10-26.13Q25.44-22.92 25.44-17.60L25.44-17.60L25.44 0L21.49 0L21.07-3.42L20.91-3.42Q18.86-1.69 16.46-0.50Q14.07 0.68 11.43 0.68ZM12.80-3.16L12.80-3.16Q14.91-3.16 16.75-4.14Q18.60-5.11 20.65-6.95L20.65-6.95L20.65-14.96Q13.54-14.12 10.64-12.33Q7.74-10.54 7.74-7.74L7.74-7.74Q7.74-5.32 9.22-4.24Q10.69-3.16 12.80-3.16Z" transform="translate(60.73668652627303 99.0384) " fill="rgb(255, 255, 255)" stroke="rgb(255, 255, 255)" stroke-linecap="square" stroke-linejoin="square" stroke-width="1.756" data-glyph-w="31.711683263136514" data-glyph-h="52.68" data-glyph-ascender="46.358399999999996" data-glyph-descender="-6.3216"/><path d="M16.12 0.68L16.12 0.68Q12.33 0.68 9.30-1.08Q6.27-2.84 4.48-6.19Q2.69-9.54 2.69-14.28L2.69-14.28Q2.69-19.07 4.61-22.42Q6.53-25.76 9.69-27.55Q12.85-29.34 16.49-29.34L16.49-29.34Q19.28-29.34 21.31-28.34Q23.34-27.34 24.86-25.97L24.86-25.97L22.39-22.76Q21.12-23.92 19.75-24.63Q18.39-25.34 16.65-25.34L16.65-25.34Q12.80-25.34 10.25-22.28Q7.69-19.23 7.69-14.28L7.69-14.28Q7.69-9.32 10.14-6.32Q12.59-3.32 16.54-3.32L16.54-3.32Q18.54-3.32 20.23-4.11Q21.91-4.90 23.28-6.16L23.28-6.16L25.34-2.95Q21.28 0.68 16.12 0.68Z" transform="translate(92.44836978940955 99.0384) " fill="rgb(255, 255, 255)" stroke="rgb(255, 255, 255)" stroke-linecap="square" stroke-linejoin="square" stroke-width="1.756" data-glyph-w="28.814283263136513" data-glyph-h="52.68" data-glyph-ascender="46.358399999999996" data-glyph-descender="-6.3216"/><path d="M16.38 0.68L16.38 0.68Q12.59 0.68 9.48-1.08Q6.37-2.84 4.53-6.22Q2.69-9.59 2.69-14.28L2.69-14.28Q2.69-18.91 4.53-22.28Q6.37-25.66 9.32-27.50Q12.27-29.34 15.59-29.34L15.59-29.34Q21.07-29.34 24.02-25.68Q26.97-22.02 26.97-15.91L26.97-15.91Q26.97-14.33 26.76-13.17L26.76-13.17L7.48-13.17Q7.80-8.53 10.35-5.85Q12.91-3.16 16.96-3.16L16.96-3.16Q19.07-3.16 20.81-3.77Q22.55-4.37 24.13-5.43L24.13-5.43L25.87-2.27Q23.97-1.00 21.65-0.16Q19.33 0.68 16.38 0.68ZM7.43-16.59L7.43-16.59L22.76-16.59Q22.76-25.29 15.65-25.50L15.65-25.50Q12.59-25.50 10.27-23.18Q7.95-20.86 7.43-16.59Z" transform="translate(121.26265305254607 99.0384) " fill="rgb(255, 255, 255)" stroke="rgb(255, 255, 255)" stroke-linecap="square" stroke-linejoin="square" stroke-width="1.756" data-glyph-w="31.184883263136513" data-glyph-h="52.68" data-glyph-ascender="46.358399999999996" data-glyph-descender="-6.3216"/><path d="M15.91-12.91L2.42-12.91L2.42-16.59L15.91-16.59L15.91-12.91Z" transform="translate(152.44753631568258 99.0384) " fill="rgb(255, 255, 255)" stroke="rgb(255, 255, 255)" stroke-linecap="square" stroke-linejoin="square" stroke-width="1.756" data-glyph-w="20.280123263136513" data-glyph-h="52.68" data-glyph-ascender="46.358399999999996" data-glyph-descender="-6.3216"/><path d="M11.96-21.60L10.06-15.70L21.76-15.70L19.91-21.60Q17.86-28.08 16.01-34.66L16.01-34.66L15.80-34.66Q14.01-28.03 11.96-21.60L11.96-21.60ZM31.82 0L26.66 0L22.97-11.80L8.85-11.80L5.11 0L0.16 0L13.28-38.61L18.70-38.61L31.82 0Z" transform="translate(172.7276595788191 99.0384) " fill="rgb(255, 255, 255)" stroke="rgb(255, 255, 255)" stroke-linecap="square" stroke-linejoin="square" stroke-width="1.756" data-glyph-w="33.97692326313651" data-glyph-h="52.68" data-glyph-ascender="46.358399999999996" data-glyph-descender="-6.3216"/><path d="M14.59 0.68L14.59 0.68Q9.22 0.68 6.01-3.21Q2.79-7.11 2.79-14.28L2.79-14.28Q2.79-18.91 4.53-22.28Q6.27-25.66 9.09-27.50Q11.91-29.34 15.17-29.34L15.17-29.34Q17.70-29.34 19.54-28.45Q21.39-27.55 23.23-25.97L23.23-25.97L22.97-30.92L22.97-41.93L27.76-41.93L27.76 0L23.86 0L23.39-3.37L23.28-3.37Q21.60-1.69 19.39-0.50Q17.17 0.68 14.59 0.68ZM15.65-3.32L15.65-3.32Q19.60-3.32 22.97-7.27L22.97-7.27L22.97-22.28Q19.60-25.29 16.01-25.29L16.01-25.29Q12.54-25.29 10.14-22.26Q7.74-19.23 7.74-14.33L7.74-14.33Q7.74-9.17 9.80-6.24Q11.85-3.32 15.65-3.32Z" transform="translate(206.7045828419556 99.0384) " fill="rgb(255, 255, 255)" stroke="rgb(255, 255, 255)" stroke-linecap="square" stroke-linejoin="square" stroke-width="1.756" data-glyph-w="34.661763263136514" data-glyph-h="52.68" data-glyph-ascender="46.358399999999996" data-glyph-descender="-6.3216"/><path d="M9.64 0L4.85 0L4.85-28.61L8.80-28.61L9.22-24.44L9.38-24.44Q11.22-26.55 13.46-27.95Q15.70-29.34 18.28-29.34L18.28-29.34Q21.55-29.34 23.44-27.89Q25.34-26.45 26.18-23.86L26.18-23.86Q28.39-26.34 30.71-27.84Q33.03-29.34 35.61-29.34L35.61-29.34Q40.04-29.34 42.17-26.47Q44.30-23.60 44.30-18.12L44.30-18.12L44.30 0L39.51 0L39.51-17.49Q39.51-21.55 38.22-23.34Q36.93-25.13 34.19-25.13L34.19-25.13Q30.87-25.13 26.97-20.76L26.97-20.76L26.97 0L22.18 0L22.18-17.49Q22.18-21.55 20.89-23.34Q19.60-25.13 16.86-25.13L16.86-25.13Q13.64-25.13 9.64-20.76L9.64-20.76L9.64 0Z" transform="translate(241.36634610509213 99.0384) " fill="rgb(255, 255, 255)" stroke="rgb(255, 255, 255)" stroke-linecap="square" stroke-linejoin="square" stroke-width="1.756" data-glyph-w="50.78184326313651" data-glyph-h="52.68" data-glyph-ascender="46.358399999999996" data-glyph-descender="-6.3216"/><path d="M9.64 0L4.85 0L4.85-28.61L9.64-28.61L9.64 0ZM7.27-34.51L7.27-34.51Q5.85-34.51 4.90-35.40Q3.95-36.30 3.95-37.61L3.95-37.61Q3.95-40.56 7.27-40.72L7.27-40.72Q8.69-40.72 9.64-39.91Q10.59-39.09 10.59-37.61L10.59-37.61Q10.59-36.30 9.64-35.40Q8.69-34.51 7.27-34.51Z" transform="translate(292.14818936822866 99.0384) " fill="rgb(255, 255, 255)" stroke="rgb(255, 255, 255)" stroke-linecap="square" stroke-linejoin="square" stroke-width="1.756" data-glyph-w="16.487163263136512" data-glyph-h="52.68" data-glyph-ascender="46.358399999999996" data-glyph-descender="-6.3216"/><path d="M9.64 0L4.85 0L4.85-28.61L8.80-28.61L9.22-24.50L9.38-24.50Q11.43-26.55 13.75-27.95Q16.07-29.34 18.96-29.34L18.96-29.34Q23.50-29.34 25.60-26.47Q27.71-23.60 27.71-18.12L27.71-18.12L27.71 0L22.92 0L22.92-17.49Q22.92-21.55 21.63-23.34Q20.33-25.13 17.49-25.13L17.49-25.13Q15.28-25.13 13.51-24.02Q11.75-22.92 9.64-20.76L9.64-20.76L9.64 0Z" transform="translate(308.63535263136515 99.0384) " fill="rgb(255, 255, 255)" stroke="rgb(255, 255, 255)" stroke-linecap="square" stroke-linejoin="square" stroke-width="1.756" data-glyph-w="34.187643263136515" data-glyph-h="52.68" data-glyph-ascender="46.358399999999996" data-glyph-descender="-6.3216"/></g>
</svg></g></g>  <!----></svg>