<svg xmlns="http://www.w3.org/2000/svg" xmlns:xlink="http://www.w3.org/1999/xlink" width="178" height="130" viewBox="0 0 178 130">
  <defs>
    <linearGradient id="linear-gradient" x1="0.5" x2="0.5" y2="1" gradientUnits="objectBoundingBox">
      <stop offset="0" stop-color="#e9e9e9"/>
      <stop offset="1" stop-color="#fff" stop-opacity="0"/>
    </linearGradient>
    <linearGradient id="linear-gradient-2" x1="0.5" x2="0.5" y2="1" gradientUnits="objectBoundingBox">
      <stop offset="0" stop-color="#dcdcdc"/>
      <stop offset="1" stop-color="#fff" stop-opacity="0"/>
    </linearGradient>
    <linearGradient id="linear-gradient-3" x1="0.5" x2="0.5" y2="1" gradientUnits="objectBoundingBox">
      <stop offset="0" stop-color="#f1f1f1"/>
      <stop offset="1" stop-color="#fff" stop-opacity="0"/>
    </linearGradient>
    <linearGradient id="linear-gradient-5" x1="0.5" x2="0.5" y2="1" gradientUnits="objectBoundingBox">
      <stop offset="0" stop-color="#dedede"/>
      <stop offset="1" stop-color="#fff" stop-opacity="0"/>
    </linearGradient>
    <linearGradient id="linear-gradient-7" x1="0.5" x2="0.5" y2="1" gradientUnits="objectBoundingBox">
      <stop offset="0" stop-color="#e8e8e8"/>
      <stop offset="1" stop-color="#fff" stop-opacity="0"/>
    </linearGradient>
    <linearGradient id="linear-gradient-9" x1="0.213" y1="1.265" x2="0.846" gradientUnits="objectBoundingBox">
      <stop offset="0" stop-color="#fff"/>
      <stop offset="1" stop-color="#f5f5f5"/>
    </linearGradient>
    <linearGradient id="linear-gradient-10" x1="0.5" x2="0.5" y2="1" gradientUnits="objectBoundingBox">
      <stop offset="0" stop-color="#c5c5c5"/>
      <stop offset="1" stop-color="#fff" stop-opacity="0"/>
    </linearGradient>
    <linearGradient id="linear-gradient-11" x1="0.5" x2="0.464" y2="1" gradientUnits="objectBoundingBox">
      <stop offset="0" stop-color="#dcdcdc"/>
      <stop offset="1" stop-color="#949494"/>
    </linearGradient>
    <linearGradient id="linear-gradient-12" x1="0.5" x2="0.5" y2="1" gradientUnits="objectBoundingBox">
      <stop offset="0" stop-color="#c2c2c2"/>
      <stop offset="1" stop-color="#fcfcfc" stop-opacity="0.012"/>
    </linearGradient>
    <linearGradient id="linear-gradient-13" x1="0.5" x2="0.5" y2="1.017" gradientUnits="objectBoundingBox">
      <stop offset="0" stop-color="#dedede"/>
      <stop offset="1" stop-color="#9e9e9e"/>
    </linearGradient>
    <linearGradient id="linear-gradient-14" x1="0.5" x2="0.5" y2="1" gradientUnits="objectBoundingBox">
      <stop offset="0" stop-color="#9a9a9a"/>
      <stop offset="1" stop-color="#707070"/>
    </linearGradient>
  </defs>
  <g id="暂无权限" transform="translate(-224 -629)">
    <g id="暂无数据" transform="translate(131 476)">
      <rect id="矩形_639" data-name="矩形 639" width="178" height="130" transform="translate(93 153)" fill="none"/>
      <g id="暂无数据-2" data-name="暂无数据" transform="translate(31.648 -170.376)">
        <g id="组_72" data-name="组 72" transform="translate(71.94 323.376)">
          <path id="路径_82" data-name="路径 82" d="M0,10.795,36.6,0V93.779L0,104.574Z" transform="translate(17.878 11.142)" fill="url(#linear-gradient)"/>
          <path id="路径_81" data-name="路径 81" d="M-8.492,10.642-26.361-.469v93.78l17.868,11.111Z" transform="translate(26.37 11.293)" fill="url(#linear-gradient-2)"/>
          <path id="路径_80" data-name="路径 80" d="M-8.5,5.55,28.106-5.3,10.228-16.437l-36.6,10.845Z" transform="translate(26.375 16.438)" fill="url(#linear-gradient-3)"/>
        </g>
        <g id="组_70" data-name="组 70" transform="translate(170.053 326.113)">
          <path id="路径_78" data-name="路径 78" d="M0,10.539,35.741,0V91.56L0,102.1Z" transform="translate(17.457 10.88)" fill="url(#linear-gradient-3)"/>
          <path id="路径_79" data-name="路径 79" d="M-8.913,10.38-26.361-.469V91.093l17.448,10.848Z" transform="translate(26.37 11.038)" fill="url(#linear-gradient-5)"/>
          <path id="路径_77" data-name="路径 77" d="M-8.918,5.032,26.823-5.558,9.366-16.437-26.375-5.848Z" transform="translate(26.375 16.438)" fill="url(#linear-gradient-3)"/>
        </g>
        <g id="组_71" data-name="组 71" transform="translate(101.968 354.568)">
          <path id="路径_74" data-name="路径 74" d="M0,9.137,30.839,0V79.381L0,88.519Z" transform="translate(15.062 9.387)" fill="url(#linear-gradient-7)"/>
          <path id="路径_75" data-name="路径 75" d="M-11.306,8.936l-15.054-9.4V78.913l15.054,9.4Z" transform="translate(26.369 9.588)" fill="url(#linear-gradient-2)"/>
          <path id="路径_76" data-name="路径 76" d="M-11.313,2.087,19.526-7.05,4.464-16.437-26.375-7.3Z" transform="translate(26.375 16.438)" fill="url(#linear-gradient-9)"/>
        </g>
        <path id="减去_26" data-name="减去 26" d="M178,53H0A51.361,51.361,0,0,1,10.453,32.048,74.532,74.532,0,0,1,30.195,15.237,103.3,103.3,0,0,1,57.089,4.058a127.515,127.515,0,0,1,63.823,0,103.3,103.3,0,0,1,26.894,11.179,74.532,74.532,0,0,1,19.741,16.811A51.363,51.363,0,0,1,178,53Z" transform="translate(61.352 399.925)" fill="url(#linear-gradient-10)"/>
      </g>
    </g>
    <g id="组_428" data-name="组 428" transform="translate(1)">
      <path id="联合_63" data-name="联合 63" d="M129.337-3581H102.42a7,7,0,0,1-7-7v-14.649l-.369.02-1.72-1.123,1.72-2.723,2.925-1.963.014.018A6.971,6.971,0,0,1,102.42-3610h30a7,7,0,0,1,7,7v15a7,7,0,0,1-4.052,6.352l-2.641,1.844-.819.343Z" transform="translate(198.58 4307)" fill="url(#linear-gradient-11)"/>
      <path id="路径_315" data-name="路径 315" d="M1382,994.814l-17.557,14.4h45.07l12.746-14.4Z" transform="translate(-1089 -269)" fill="url(#linear-gradient-12)"/>
      <rect id="矩形_853" data-name="矩形 853" width="44" height="29" rx="7" transform="translate(291 699)" fill="#b2b2b2"/>
      <g id="组_426" data-name="组 426" transform="translate(2 -3)">
        <g id="椭圆_405" data-name="椭圆 405" transform="translate(301.5 700)" fill="#fff" stroke="#707070" stroke-width="1">
          <ellipse cx="2" cy="0.5" rx="2" ry="0.5" stroke="none"/>
          <ellipse cx="2" cy="0.5" rx="1.5" fill="none"/>
        </g>
        <g id="椭圆_406" data-name="椭圆 406" transform="translate(320.5 700)" fill="#fff" stroke="#707070" stroke-width="1">
          <ellipse cx="2" cy="0.5" rx="2" ry="0.5" stroke="none"/>
          <ellipse cx="2" cy="0.5" rx="1.5" fill="none"/>
        </g>
        <path id="联合_65" data-name="联合 65" d="M112-3599a7.948,7.948,0,0,0-2.346-5.654A7.95,7.95,0,0,0,104-3607a8.009,8.009,0,0,0-8,8h0c0,.827-.672.959-1.5.959s-1.5-.132-1.5-.96a10.93,10.93,0,0,1,3.222-7.778A10.928,10.928,0,0,1,104-3610a10.932,10.932,0,0,1,7.779,3.222A10.926,10.926,0,0,1,115-3599h0c0,.828-.671.96-1.5.96S112-3598.172,112-3599Z" transform="translate(209 4299)" fill="url(#linear-gradient-13)"/>
      </g>
      <g id="组_427" data-name="组 427">
        <path id="联合_66" data-name="联合 66" d="M92-3597.5a3.5,3.5,0,0,1,2-3.163V-3610h3v4h4v3H97v2.336a3.5,3.5,0,0,1,2,3.163,3.5,3.5,0,0,1-3.5,3.5A3.5,3.5,0,0,1,92-3597.5Z" transform="translate(218 4316)" fill="url(#linear-gradient-14)"/>
      </g>
    </g>
  </g>
</svg>
