<svg xmlns="http://www.w3.org/2000/svg" xmlns:xlink="http://www.w3.org/1999/xlink" width="178" height="130" viewBox="0 0 178 130">
  <defs>
    <linearGradient id="linear-gradient" x1="0.5" x2="0.5" y2="1" gradientUnits="objectBoundingBox">
      <stop offset="0" stop-color="#e9e9e9"/>
      <stop offset="1" stop-color="#fff" stop-opacity="0"/>
    </linearGradient>
    <linearGradient id="linear-gradient-2" x1="0.5" x2="0.5" y2="1" gradientUnits="objectBoundingBox">
      <stop offset="0" stop-color="#dcdcdc"/>
      <stop offset="1" stop-color="#fff" stop-opacity="0"/>
    </linearGradient>
    <linearGradient id="linear-gradient-3" x1="0.5" x2="0.5" y2="1" gradientUnits="objectBoundingBox">
      <stop offset="0" stop-color="#f1f1f1"/>
      <stop offset="1" stop-color="#fff" stop-opacity="0"/>
    </linearGradient>
    <linearGradient id="linear-gradient-5" x1="0.5" x2="0.5" y2="1" gradientUnits="objectBoundingBox">
      <stop offset="0" stop-color="#dedede"/>
      <stop offset="1" stop-color="#fff" stop-opacity="0"/>
    </linearGradient>
    <linearGradient id="linear-gradient-7" x1="0.5" x2="0.5" y2="1" gradientUnits="objectBoundingBox">
      <stop offset="0" stop-color="#e8e8e8"/>
      <stop offset="1" stop-color="#fff" stop-opacity="0"/>
    </linearGradient>
    <linearGradient id="linear-gradient-9" x1="0.213" y1="1.265" x2="0.846" gradientUnits="objectBoundingBox">
      <stop offset="0" stop-color="#fff"/>
      <stop offset="1" stop-color="#f5f5f5"/>
    </linearGradient>
    <linearGradient id="linear-gradient-10" x1="0.5" x2="0.5" y2="1" gradientUnits="objectBoundingBox">
      <stop offset="0" stop-color="#c5c5c5"/>
      <stop offset="1" stop-color="#fff" stop-opacity="0"/>
    </linearGradient>
    <linearGradient id="linear-gradient-11" x1="0.866" y1="-0.111" x2="0.657" y2="1" gradientUnits="objectBoundingBox">
      <stop offset="0" stop-color="#c9c9c9"/>
      <stop offset="1" stop-color="#fff" stop-opacity="0"/>
    </linearGradient>
    <linearGradient id="linear-gradient-12" x1="0.5" x2="0.5" y2="1" gradientUnits="objectBoundingBox">
      <stop offset="0" stop-color="#dedede"/>
      <stop offset="1" stop-color="#9e9e9e"/>
    </linearGradient>
    <linearGradient id="linear-gradient-13" x1="0.5" x2="0.5" y2="1" gradientUnits="objectBoundingBox">
      <stop offset="0" stop-color="#e5e5e5"/>
      <stop offset="1" stop-color="#737373"/>
    </linearGradient>
  </defs>
  <g id="暂无地址" transform="translate(-527 -629)">
    <g id="暂无数据" transform="translate(434 476)">
      <rect id="矩形_639" data-name="矩形 639" width="178" height="130" transform="translate(93 153)" fill="none"/>
      <g id="暂无数据-2" data-name="暂无数据" transform="translate(31.648 -170.376)">
        <g id="组_72" data-name="组 72" transform="translate(71.94 323.376)">
          <path id="路径_82" data-name="路径 82" d="M0,10.795,36.6,0V93.779L0,104.574Z" transform="translate(17.878 11.142)" fill="url(#linear-gradient)"/>
          <path id="路径_81" data-name="路径 81" d="M-8.492,10.642-26.361-.469v93.78l17.868,11.111Z" transform="translate(26.37 11.293)" fill="url(#linear-gradient-2)"/>
          <path id="路径_80" data-name="路径 80" d="M-8.5,5.55,28.106-5.3,10.228-16.437l-36.6,10.845Z" transform="translate(26.375 16.438)" fill="url(#linear-gradient-3)"/>
        </g>
        <g id="组_70" data-name="组 70" transform="translate(170.053 326.113)">
          <path id="路径_78" data-name="路径 78" d="M0,10.539,35.741,0V91.56L0,102.1Z" transform="translate(17.457 10.88)" fill="url(#linear-gradient-3)"/>
          <path id="路径_79" data-name="路径 79" d="M-8.913,10.38-26.361-.469V91.093l17.448,10.848Z" transform="translate(26.37 11.038)" fill="url(#linear-gradient-5)"/>
          <path id="路径_77" data-name="路径 77" d="M-8.918,5.032,26.823-5.558,9.366-16.437-26.375-5.848Z" transform="translate(26.375 16.438)" fill="url(#linear-gradient-3)"/>
        </g>
        <g id="组_71" data-name="组 71" transform="translate(101.968 354.568)">
          <path id="路径_74" data-name="路径 74" d="M0,9.137,30.839,0V79.381L0,88.519Z" transform="translate(15.062 9.387)" fill="url(#linear-gradient-7)"/>
          <path id="路径_75" data-name="路径 75" d="M-11.306,8.936l-15.054-9.4V78.913l15.054,9.4Z" transform="translate(26.369 9.588)" fill="url(#linear-gradient-2)"/>
          <path id="路径_76" data-name="路径 76" d="M-11.313,2.087,19.526-7.05,4.464-16.437-26.375-7.3Z" transform="translate(26.375 16.438)" fill="url(#linear-gradient-9)"/>
        </g>
        <path id="减去_26" data-name="减去 26" d="M178,53H0A51.361,51.361,0,0,1,10.453,32.048,74.532,74.532,0,0,1,30.195,15.237,103.3,103.3,0,0,1,57.089,4.058a127.515,127.515,0,0,1,63.823,0,103.3,103.3,0,0,1,26.894,11.179,74.532,74.532,0,0,1,19.741,16.811A51.363,51.363,0,0,1,178,53Z" transform="translate(61.352 399.925)" fill="url(#linear-gradient-10)"/>
      </g>
    </g>
    <g id="组_419" data-name="组 419">
      <path id="路径_310" data-name="路径 310" d="M484.927,4362.944c1.05-.7,42.015-20.308,42.015-20.308l4.9,25.209Z" transform="translate(89 -3611)" fill="url(#linear-gradient-11)"/>
      <g id="组_417" data-name="组 417" transform="translate(-1 -2)">
        <path id="减去_131" data-name="减去 131" d="M113-3557.511h0c-.207-.225-5.114-5.59-10-12.238a86.321,86.321,0,0,1-6.875-10.721c-2.074-3.956-3.125-7.226-3.125-9.722a19.582,19.582,0,0,1,5.858-14.006A19.967,19.967,0,0,1,113-3610a19.968,19.968,0,0,1,14.143,5.8A19.582,19.582,0,0,1,133-3590.193c0,2.5-1.051,5.766-3.125,9.722A86.3,86.3,0,0,1,123-3569.75c-4.89,6.653-9.793,12.013-10,12.238Zm0-43.381a10.011,10.011,0,0,0-10,10,10.011,10.011,0,0,0,10,10,10.012,10.012,0,0,0,10-10A10.011,10.011,0,0,0,113-3600.892Z" transform="translate(507 4290.893)" fill="#d1d1d1"/>
        <circle id="椭圆_396" data-name="椭圆 396" cx="5" cy="5" r="5" transform="translate(615 695)" fill="#d1d1d1"/>
      </g>
      <path id="联合_59" data-name="联合 59" d="M94.771-3560.531l.706.115q-.355-.413-.746-.875l3.306-11.207,10.121-7.243-.892-7.3a9.951,9.951,0,0,0,.771-3.851,10.014,10.014,0,0,0-8.617-9.9l-5.591-3.7L93-3608l5.046-2a19.969,19.969,0,0,1,14.133,5.8,19.58,19.58,0,0,1,5.859,14.006c0,2.5-1.053,5.766-3.126,9.721a86.13,86.13,0,0,1-6.876,10.721c-4.833,6.576-9.679,11.887-9.99,12.229l-.01,0,0,0-.006-.006-4.99,1.975Z" transform="translate(520.963 4288.893)" fill="url(#linear-gradient-12)"/>
      <path id="联合_60" data-name="联合 60" d="M93-3605v-3.052l1.55-.567A4.983,4.983,0,0,1,98-3610a5,5,0,0,1,5,5,5,5,0,0,1-4.926,5L93-3598.029Z" transform="translate(521 4303)" fill="url(#linear-gradient-13)"/>
      <g id="组_416" data-name="组 416" transform="translate(-6)">
        <path id="路径_305" data-name="路径 305" d="M20,0A19.9,19.9,0,0,1,40,19.807c0,10.939-20,32.682-20,32.682S0,30.747,0,19.807A19.9,19.9,0,0,1,20,0Z" transform="translate(600 680.893)" fill="#b2b2b2"/>
        <circle id="椭圆_395" data-name="椭圆 395" cx="10" cy="10" r="10" transform="translate(610 690)" fill="#f1f1f1"/>
        <circle id="椭圆_396-2" data-name="椭圆 396" cx="5" cy="5" r="5" transform="translate(615 695)" fill="#707070"/>
      </g>
    </g>
  </g>
</svg>
