<svg xmlns="http://www.w3.org/2000/svg" xmlns:xlink="http://www.w3.org/1999/xlink" width="178" height="130" viewBox="0 0 178 130">
  <defs>
    <clipPath id="clip-path">
      <rect id="矩形_844" data-name="矩形 844" width="178" height="130" transform="translate(1318 898)" fill="none"/>
    </clipPath>
    <linearGradient id="linear-gradient" x1="0.5" x2="0.5" y2="1" gradientUnits="objectBoundingBox">
      <stop offset="0" stop-color="#e9e9e9"/>
      <stop offset="1" stop-color="#fff" stop-opacity="0"/>
    </linearGradient>
    <linearGradient id="linear-gradient-2" x1="0.5" x2="0.5" y2="1" gradientUnits="objectBoundingBox">
      <stop offset="0" stop-color="#dcdcdc"/>
      <stop offset="1" stop-color="#fff" stop-opacity="0"/>
    </linearGradient>
    <linearGradient id="linear-gradient-3" x1="0.5" x2="0.5" y2="1" gradientUnits="objectBoundingBox">
      <stop offset="0" stop-color="#f1f1f1"/>
      <stop offset="1" stop-color="#fff" stop-opacity="0"/>
    </linearGradient>
    <linearGradient id="linear-gradient-5" x1="0.5" x2="0.5" y2="1" gradientUnits="objectBoundingBox">
      <stop offset="0" stop-color="#dedede"/>
      <stop offset="1" stop-color="#fff" stop-opacity="0"/>
    </linearGradient>
    <linearGradient id="linear-gradient-7" x1="0.5" x2="0.5" y2="1" gradientUnits="objectBoundingBox">
      <stop offset="0" stop-color="#e8e8e8"/>
      <stop offset="1" stop-color="#fff" stop-opacity="0"/>
    </linearGradient>
    <linearGradient id="linear-gradient-9" x1="0.213" y1="1.265" x2="0.846" gradientUnits="objectBoundingBox">
      <stop offset="0" stop-color="#fff"/>
      <stop offset="1" stop-color="#f5f5f5"/>
    </linearGradient>
    <linearGradient id="linear-gradient-10" x1="0.5" x2="0.5" y2="1" gradientUnits="objectBoundingBox">
      <stop offset="0" stop-color="#c5c5c5"/>
      <stop offset="1" stop-color="#fff" stop-opacity="0"/>
    </linearGradient>
  </defs>
  <g id="暂无收藏" transform="translate(-1780 -236)">
    <g id="暂无收藏-2" data-name="暂无收藏" transform="translate(462 -662)">
      <g id="蒙版组_16" data-name="蒙版组 16" clip-path="url(#clip-path)">
        <g id="组_414" data-name="组 414">
          <g id="组_409" data-name="组 409" transform="translate(1328.588 898)">
            <path id="路径_285" data-name="路径 285" d="M0,10.795,36.6,0V93.779L0,104.574Z" transform="translate(17.878 11.142)" fill="url(#linear-gradient)"/>
            <path id="路径_286" data-name="路径 286" d="M-8.492,10.642-26.361-.469v93.78l17.868,11.111Z" transform="translate(26.37 11.293)" fill="url(#linear-gradient-2)"/>
            <path id="路径_287" data-name="路径 287" d="M-8.5,5.55,28.106-5.3,10.228-16.437l-36.6,10.845Z" transform="translate(26.375 16.438)" fill="url(#linear-gradient-3)"/>
          </g>
          <g id="组_410" data-name="组 410" transform="translate(1426.701 899.737)">
            <path id="路径_288" data-name="路径 288" d="M0,10.539,35.741,0V91.56L0,102.1Z" transform="translate(17.457 10.88)" fill="url(#linear-gradient-3)"/>
            <path id="路径_289" data-name="路径 289" d="M-8.913,10.38-26.361-.469V91.093l17.448,10.848Z" transform="translate(26.37 11.038)" fill="url(#linear-gradient-5)"/>
            <path id="路径_290" data-name="路径 290" d="M-8.918,5.032,26.823-5.558,9.366-16.437-26.375-5.848Z" transform="translate(26.375 16.438)" fill="url(#linear-gradient-3)"/>
          </g>
          <g id="组_411" data-name="组 411" transform="translate(1358.616 929.192)">
            <path id="路径_291" data-name="路径 291" d="M0,9.137,30.839,0V79.381L0,88.519Z" transform="translate(15.062 9.387)" fill="url(#linear-gradient-7)"/>
            <path id="路径_292" data-name="路径 292" d="M-11.306,8.936l-15.054-9.4V78.913l15.054,9.4Z" transform="translate(26.369 9.588)" fill="url(#linear-gradient-2)"/>
            <path id="路径_293" data-name="路径 293" d="M-11.313,2.087,19.526-7.05,4.464-16.437-26.375-7.3Z" transform="translate(26.375 16.438)" fill="url(#linear-gradient-9)"/>
          </g>
          <path id="减去_130" data-name="减去 130" d="M178,53H0A51.361,51.361,0,0,1,10.453,32.048,74.532,74.532,0,0,1,30.195,15.237,103.3,103.3,0,0,1,57.089,4.058a127.515,127.515,0,0,1,63.823,0,103.3,103.3,0,0,1,26.894,11.179,74.532,74.532,0,0,1,19.741,16.811A51.363,51.363,0,0,1,178,53Z" transform="translate(1318 974.549)" fill="url(#linear-gradient-10)"/>
        </g>
      </g>
    </g>
    <g id="组_415" data-name="组 415" transform="translate(-2.182)">
      <path id="多边形_11" data-name="多边形 11" d="M19.783,2.878a2,2,0,0,1,3.435,0L28.48,11.7a2,2,0,0,0,1.27.924l10,2.295a2,2,0,0,1,1.061,3.262l-6.749,7.755a2,2,0,0,0-.483,1.491l.913,10.246a2,2,0,0,1-2.779,2.016l-9.425-4.032a2,2,0,0,0-1.573,0l-9.425,4.032a2,2,0,0,1-2.779-2.016l.913-10.246a2,2,0,0,0-.483-1.491L2.19,18.177a2,2,0,0,1,1.061-3.262l10-2.295a2,2,0,0,0,1.27-.924Z" transform="translate(1835.182 296.72) rotate(-16)" fill="#bebebe"/>
      <g id="多边形_12" data-name="多边形 12" transform="translate(1871.343 296.041) rotate(16)" fill="#fff">
        <path d="M 28.19378852844238 33.77179718017578 C 28.06058883666992 33.77179718017578 27.92749786376953 33.74375915527344 27.79819869995117 33.68844985961914 L 20.0179386138916 30.36030769348145 C 19.64291763305664 30.19988822937012 19.24594879150391 30.1185474395752 18.83805847167969 30.1185474395752 C 18.43016815185547 30.1185474395752 18.03319931030273 30.19988822937012 17.65817832946777 30.36030769348145 L 9.877928733825684 33.68844985961914 C 9.748618125915527 33.74375915527344 9.615528106689453 33.77179718017578 9.482328414916992 33.77179718017578 C 9.204778671264648 33.77179718017578 8.934868812561035 33.6507568359375 8.741788864135742 33.439697265625 C 8.608388900756836 33.29387664794922 8.456178665161133 33.04375839233398 8.488578796386719 32.68024826049805 L 9.242678642272949 24.22058868408203 C 9.31476879119873 23.41200828552246 9.050448417663574 22.59703826904297 8.517468452453613 21.98466873168945 L 2.944308519363403 15.58129787445068 C 2.608688354492188 15.19567775726318 2.694988489151001 14.77736854553223 2.747678518295288 14.61541843414307 C 2.800358533859253 14.45346832275391 2.976688385009766 14.06445789337158 3.47493839263916 13.95010852813721 L 11.73020839691162 12.05561828613281 C 12.52370834350586 11.8735179901123 13.21808815002441 11.36813831329346 13.63529872894287 10.66904830932617 L 17.97934913635254 3.390148162841797 C 18.24195861816406 2.950138330459595 18.66734886169434 2.90263819694519 18.83805847167969 2.90263819694519 C 19.00875854492188 2.90263819694519 19.43415832519531 2.950138330459595 19.69675827026367 3.390158176422119 L 24.04081916809082 10.66904830932617 C 24.45802879333496 11.36813831329346 25.15240859985352 11.8735179901123 25.94589805603027 12.05561828613281 L 34.20117950439453 13.95010852813721 C 34.69944000244141 14.06445789337158 34.87576675415039 14.45347785949707 34.92844772338867 14.61542797088623 C 34.98112869262695 14.77736854553223 35.06742858886719 15.19566822052002 34.73180770874023 15.58127784729004 L 29.15864753723145 21.98467826843262 C 28.62568855285645 22.59701728820801 28.36135864257813 23.41197776794434 28.43343925476074 24.22058868408203 L 29.18753814697266 32.68024826049805 C 29.21993827819824 33.0436897277832 29.06770896911621 33.29381942749023 28.93429756164551 33.43964767456055 C 28.74119758605957 33.65073776245117 28.47128868103027 33.77179718017578 28.19378852844238 33.77179718017578 Z" stroke="none"/>
        <path d="M 18.83804893493652 3.902618408203125 L 18.83805847167969 3.902629852294922 L 14.49400901794434 11.18152809143066 C 13.93771934509277 12.11363792419434 13.01188850402832 12.78748893737793 11.95388793945313 13.03028869628906 L 3.698627471923828 14.92477798461914 C 3.698627471923828 14.92477798461914 3.698623657226563 14.92477989196777 3.698619842529297 14.92477798461914 L 9.271778106689453 21.32815933227539 C 9.982398986816406 22.14462852478027 10.3348388671875 23.23123931884766 10.23872756958008 24.30937957763672 L 9.484628677368164 32.76903915405273 L 17.26488876342773 29.44088745117188 C 17.76491928100586 29.22699737548828 18.29420852661133 29.11853790283203 18.83805847167969 29.11853790283203 C 19.38190841674805 29.11853790283203 19.91119766235352 29.22699737548828 20.4112377166748 29.44089889526367 L 28.19148254394531 32.76903533935547 C 28.19148445129395 32.76903533935547 28.19148635864258 32.7690315246582 28.19148826599121 32.7690315246582 C 28.19148826599121 32.7690315246582 28.19148826599121 32.76902770996094 28.19148826599121 32.76902770996094 L 27.4373779296875 24.3093376159668 C 27.34128952026367 23.23120880126953 27.69372940063477 22.14460754394531 28.40432739257813 21.32815933227539 L 33.97749710083008 14.92477798461914 L 25.72222900390625 13.03028869628906 C 24.66422843933105 12.78748893737793 23.73839950561523 12.11363792419434 23.1821174621582 11.18152809143066 L 18.83804893493652 3.902618408203125 M 18.83805656433105 1.902626037597656 C 19.50278854370117 1.902626037597656 20.16751861572266 2.227642059326172 20.55545806884766 2.877677917480469 L 24.89951705932617 10.15657806396484 C 25.1790885925293 10.62502861022949 25.63787841796875 10.95893859863281 26.16957855224609 11.08095741271973 L 34.42485046386719 12.97544860839844 C 35.89698791503906 13.31328773498535 36.47772979736328 15.09847831726074 35.48611831665039 16.2377986907959 L 29.9129581451416 22.64118957519531 C 29.55574798583984 23.05160903930664 29.38117980957031 23.58984756469727 29.42947769165039 24.13179779052734 L 30.1835880279541 32.59144973754883 C 30.29256820678711 33.81394577026367 29.31087875366211 34.77179718017578 28.19378662109375 34.77179718017578 C 27.93413543701172 34.77179718017578 27.66718864440918 34.72005462646484 27.40489959716797 34.60785675048828 L 19.62464904785156 31.27971839904785 C 19.37345886230469 31.17226791381836 19.10575866699219 31.11854362487793 18.83805847167969 31.11854362487793 C 18.57035827636719 31.11854362487793 18.30265808105469 31.17226791381836 18.05146789550781 31.27971839904785 L 10.27121925354004 34.60785675048828 C 10.00901412963867 34.72002029418945 9.741903305053711 34.77179718017578 9.482330322265625 34.77179718017578 C 8.365133285522461 34.77179718017578 7.383541107177734 33.81403732299805 7.492528915405273 32.59144973754883 L 8.246627807617188 24.13179779052734 C 8.294939041137695 23.58984756469727 8.120368957519531 23.05160903930664 7.763158798217773 22.64118957519531 L 2.189987182617188 16.23780822753906 C 1.198379516601563 15.09847831726074 1.779129028320313 13.31328773498535 3.251277923583984 12.97544860839844 L 11.50653839111328 11.08095741271973 C 12.03823852539063 10.95893859863281 12.49702835083008 10.62502861022949 12.77659797668457 10.15657806396484 L 17.12064933776855 2.877677917480469 C 17.50859260559082 2.227642059326172 18.17332649230957 1.902626037597656 18.83805656433105 1.902626037597656 Z" stroke="none" fill="#707070"/>
      </g>
      <path id="路径_303" data-name="路径 303" d="M0,0A3.024,3.024,0,0,0,3.274,1.75" transform="matrix(-0.996, 0.087, -0.087, -0.996, 1891.54, 319.108)" fill="none" stroke="#707070" stroke-linecap="round" stroke-width="1"/>
      <path id="路径_302" data-name="路径 302" d="M3.332,0A3.086,3.086,0,0,1,0,2" transform="translate(1879.918 317.791) rotate(-140)" fill="none" stroke="#707070" stroke-linecap="round" stroke-width="1"/>
      <path id="路径_301" data-name="路径 301" d="M5.758,0A5.326,5.326,0,0,1,0,2.981" transform="translate(1861.001 313.817) rotate(13)" fill="none" stroke="#fff" stroke-linecap="round" stroke-width="1"/>
      <path id="路径_304" data-name="路径 304" d="M5.045,2.651A4.667,4.667,0,0,0,0,.039" transform="translate(1885.534 323.989) rotate(167)" fill="none" stroke="#707070" stroke-linecap="round" stroke-width="1"/>
      <ellipse id="椭圆_393" data-name="椭圆 393" cx="1.5" cy="2" rx="1.5" ry="2" transform="translate(1853.561 308.422) rotate(-14)" fill="#fff"/>
      <ellipse id="椭圆_394" data-name="椭圆 394" cx="1.5" cy="2" rx="1.5" ry="2" transform="translate(1864.561 305.422) rotate(-14)" fill="#fff"/>
      <path id="联合_74" data-name="联合 74" d="M13.336-3556.391A8.234,8.234,0,0,1,7.219-3554C3.232-3554,0-3556.284,0-3559.1c0-2.065,1.737-3.843,4.235-4.646a4.781,4.781,0,0,1-.11-1.021c0-3.442,3.694-6.233,8.25-6.233,4.331,0,7.882,2.521,8.223,5.727q.771-.059,1.574-.06c5.98,0,10.828,2.537,10.828,5.666S28.152-3554,22.172-3554A15.4,15.4,0,0,1,13.336-3556.391Z" transform="translate(1875 3845)" fill="#d9d9d9"/>
      <path id="联合_75" data-name="联合 75" d="M12.932-3558.109A8.414,8.414,0,0,1,7-3556c-3.866,0-7-2.015-7-4.5,0-1.822,1.684-3.391,4.107-4.1a3.858,3.858,0,0,1-.107-.9c0-3.037,3.582-5.5,8-5.5,4.2,0,7.643,2.224,7.974,5.053q.748-.052,1.526-.052c5.8,0,10.5,2.239,10.5,5s-4.7,5-10.5,5A16.045,16.045,0,0,1,12.932-3558.109Z" transform="translate(1876 3846)" fill="#fff"/>
    </g>
  </g>
</svg>
