<svg xmlns="http://www.w3.org/2000/svg" xmlns:xlink="http://www.w3.org/1999/xlink" width="178" height="130" viewBox="0 0 178 130">
  <defs>
    <linearGradient id="linear-gradient" x1="0.5" x2="0.5" y2="1" gradientUnits="objectBoundingBox">
      <stop offset="0" stop-color="#e9e9e9"/>
      <stop offset="1" stop-color="#fff" stop-opacity="0"/>
    </linearGradient>
    <linearGradient id="linear-gradient-2" x1="0.5" x2="0.5" y2="1" gradientUnits="objectBoundingBox">
      <stop offset="0" stop-color="#dcdcdc"/>
      <stop offset="1" stop-color="#fff" stop-opacity="0"/>
    </linearGradient>
    <linearGradient id="linear-gradient-3" x1="0.5" x2="0.5" y2="1" gradientUnits="objectBoundingBox">
      <stop offset="0" stop-color="#f1f1f1"/>
      <stop offset="1" stop-color="#fff" stop-opacity="0"/>
    </linearGradient>
    <linearGradient id="linear-gradient-5" x1="0.5" x2="0.5" y2="1" gradientUnits="objectBoundingBox">
      <stop offset="0" stop-color="#dedede"/>
      <stop offset="1" stop-color="#fff" stop-opacity="0"/>
    </linearGradient>
    <linearGradient id="linear-gradient-7" x1="0.5" x2="0.5" y2="1" gradientUnits="objectBoundingBox">
      <stop offset="0" stop-color="#e8e8e8"/>
      <stop offset="1" stop-color="#fff" stop-opacity="0"/>
    </linearGradient>
    <linearGradient id="linear-gradient-9" x1="0.213" y1="1.265" x2="0.846" gradientUnits="objectBoundingBox">
      <stop offset="0" stop-color="#fff"/>
      <stop offset="1" stop-color="#f5f5f5"/>
    </linearGradient>
    <linearGradient id="linear-gradient-10" x1="0.5" x2="0.5" y2="1" gradientUnits="objectBoundingBox">
      <stop offset="0" stop-color="#c5c5c5"/>
      <stop offset="1" stop-color="#fff" stop-opacity="0"/>
    </linearGradient>
    <linearGradient id="linear-gradient-11" x1="0.405" y1="0.84" x2="0.695" y2="0.158" gradientUnits="objectBoundingBox">
      <stop offset="0" stop-color="#e3e3e3" stop-opacity="0"/>
      <stop offset="1" stop-color="#c8c8c8"/>
    </linearGradient>
  </defs>
  <g id="暂无报名" transform="translate(-1780 -629)">
    <g id="暂无报名-2" data-name="暂无报名" transform="translate(1687 476)">
      <rect id="矩形_639" data-name="矩形 639" width="178" height="130" transform="translate(93 153)" fill="none"/>
      <g id="暂无数据" transform="translate(31.648 -170.376)">
        <g id="组_72" data-name="组 72" transform="translate(71.94 323.376)">
          <path id="路径_82" data-name="路径 82" d="M0,10.795,36.6,0V93.779L0,104.574Z" transform="translate(17.878 11.142)" fill="url(#linear-gradient)"/>
          <path id="路径_81" data-name="路径 81" d="M-8.492,10.642-26.361-.469v93.78l17.868,11.111Z" transform="translate(26.37 11.293)" fill="url(#linear-gradient-2)"/>
          <path id="路径_80" data-name="路径 80" d="M-8.5,5.55,28.106-5.3,10.228-16.437l-36.6,10.845Z" transform="translate(26.375 16.438)" fill="url(#linear-gradient-3)"/>
        </g>
        <g id="组_70" data-name="组 70" transform="translate(170.053 326.113)">
          <path id="路径_78" data-name="路径 78" d="M0,10.539,35.741,0V91.56L0,102.1Z" transform="translate(17.457 10.88)" fill="url(#linear-gradient-3)"/>
          <path id="路径_79" data-name="路径 79" d="M-8.913,10.38-26.361-.469V91.093l17.448,10.848Z" transform="translate(26.37 11.038)" fill="url(#linear-gradient-5)"/>
          <path id="路径_77" data-name="路径 77" d="M-8.918,5.032,26.823-5.558,9.366-16.437-26.375-5.848Z" transform="translate(26.375 16.438)" fill="url(#linear-gradient-3)"/>
        </g>
        <g id="组_71" data-name="组 71" transform="translate(101.968 354.568)">
          <path id="路径_74" data-name="路径 74" d="M0,9.137,30.839,0V79.381L0,88.519Z" transform="translate(15.062 9.387)" fill="url(#linear-gradient-7)"/>
          <path id="路径_75" data-name="路径 75" d="M-11.306,8.936l-15.054-9.4V78.913l15.054,9.4Z" transform="translate(26.369 9.588)" fill="url(#linear-gradient-2)"/>
          <path id="路径_76" data-name="路径 76" d="M-11.313,2.087,19.526-7.05,4.464-16.437-26.375-7.3Z" transform="translate(26.375 16.438)" fill="url(#linear-gradient-9)"/>
        </g>
        <path id="减去_26" data-name="减去 26" d="M178,53H0A51.361,51.361,0,0,1,10.453,32.048,74.532,74.532,0,0,1,30.195,15.237,103.3,103.3,0,0,1,57.089,4.058a127.515,127.515,0,0,1,63.823,0,103.3,103.3,0,0,1,26.894,11.179,74.532,74.532,0,0,1,19.741,16.811A51.363,51.363,0,0,1,178,53Z" transform="translate(61.352 399.925)" fill="url(#linear-gradient-10)"/>
      </g>
    </g>
    <g id="组_429" data-name="组 429">
      <path id="路径_325" data-name="路径 325" d="M1830.106,4280.908l27.017-9.886h32.747s-.46,7.174-6.18,16.726c-5.9,9.853-17.008,19.118-25.582,19.506-16.487.746-35.625-22.038-35.625-22.038Z" transform="translate(2 -3563)" fill="url(#linear-gradient-11)"/>
      <path id="路径_316" data-name="路径 316" d="M1782.92,4301.5s-.981,11.771-11.444,18.31-25.176,9.155-35.312,8.5c.327.327,28.446,20.271,28.446,20.271s12.1,2.943,30.08-12.751,18.637-28.119,18.637-28.119Z" transform="translate(-836.461 -3108.916) rotate(-13)" fill="#fff"/>
      <path id="联合_67" data-name="联合 67" d="M0-3553.631l3.155-2.412.577,3.551Zm3.52-2.455L38.3-3563l.761,3.369-35,7.02Z" transform="translate(3148.689 4040.122) rotate(-21)" fill="#707070"/>
      <path id="路径_319" data-name="路径 319" d="M1778.533,4306.211l13.623,2.29" transform="translate(93 -3610)" fill="none" stroke="#707070" stroke-linecap="round" stroke-width="2"/>
      <path id="路径_320" data-name="路径 320" d="M1775.557,4311.591l13.966,2.748" transform="translate(93 -3610)" fill="none" stroke="#707070" stroke-linecap="round" stroke-width="2"/>
      <path id="路径_321" data-name="路径 321" d="M1771.206,4317.086l14.539,3.206" transform="translate(93 -3610)" fill="none" stroke="#707070" stroke-linecap="round" stroke-width="2"/>
      <path id="路径_322" data-name="路径 322" d="M1771.206,4317.086l5.362,1.546" transform="translate(86 -3604)" fill="none" stroke="#707070" stroke-linecap="round" stroke-width="2"/>
      <circle id="椭圆_410" data-name="椭圆 410" cx="15" cy="15" r="15" transform="translate(1832 673)" fill="#e6e6e6"/>
      <circle id="椭圆_409" data-name="椭圆 409" cx="15" cy="15" r="15" transform="translate(1833 672)" fill="#fff"/>
      <circle id="椭圆_408" data-name="椭圆 408" cx="5" cy="5" r="5" transform="translate(1843 678)" fill="#bebebe"/>
      <path id="减去_134" data-name="减去 134" d="M11.758-3555H2a2,2,0,0,1-2-2v-2a4,4,0,0,1,4-4,7.079,7.079,0,0,0,3.914,1.724A7.789,7.789,0,0,0,12-3563a3.987,3.987,0,0,1,2.72,1.067A4.489,4.489,0,0,0,11-3557.5a4.478,4.478,0,0,0,.757,2.5Z" transform="translate(1840 4250)" fill="#bebebe"/>
      <circle id="椭圆_411" data-name="椭圆 411" cx="3.5" cy="3.5" r="3.5" transform="translate(1852 689)" fill="#e5e5e5"/>
      <path id="联合_68" data-name="联合 68" d="M1.414-3559.672l-1.06-1.06a.5.5,0,0,1,0-.708.5.5,0,0,1,.707,0l.689.69,1.81-1.9a.5.5,0,0,1,.707,0,.5.5,0,0,1,0,.707l-2.111,2.24a.477.477,0,0,1-.063.053.5.5,0,0,1-.326.121A.5.5,0,0,1,1.414-3559.672Z" transform="translate(1853.293 4253.793)" fill="#707070"/>
    </g>
  </g>
</svg>
