<svg xmlns="http://www.w3.org/2000/svg" xmlns:xlink="http://www.w3.org/1999/xlink" width="178" height="130" viewBox="0 0 178 130">
  <defs>
    <linearGradient id="linear-gradient" x1="0.5" x2="0.5" y2="1" gradientUnits="objectBoundingBox">
      <stop offset="0" stop-color="#e9e9e9"/>
      <stop offset="1" stop-color="#fff" stop-opacity="0"/>
    </linearGradient>
    <linearGradient id="linear-gradient-2" x1="0.5" x2="0.5" y2="1" gradientUnits="objectBoundingBox">
      <stop offset="0" stop-color="#dcdcdc"/>
      <stop offset="1" stop-color="#fff" stop-opacity="0"/>
    </linearGradient>
    <linearGradient id="linear-gradient-3" x1="0.5" x2="0.5" y2="1" gradientUnits="objectBoundingBox">
      <stop offset="0" stop-color="#f1f1f1"/>
      <stop offset="1" stop-color="#fff" stop-opacity="0"/>
    </linearGradient>
    <linearGradient id="linear-gradient-5" x1="0.5" x2="0.5" y2="1" gradientUnits="objectBoundingBox">
      <stop offset="0" stop-color="#dedede"/>
      <stop offset="1" stop-color="#fff" stop-opacity="0"/>
    </linearGradient>
    <linearGradient id="linear-gradient-7" x1="0.5" x2="0.5" y2="1" gradientUnits="objectBoundingBox">
      <stop offset="0" stop-color="#e8e8e8"/>
      <stop offset="1" stop-color="#fff" stop-opacity="0"/>
    </linearGradient>
    <linearGradient id="linear-gradient-9" x1="0.213" y1="1.265" x2="0.846" gradientUnits="objectBoundingBox">
      <stop offset="0" stop-color="#fff"/>
      <stop offset="1" stop-color="#f5f5f5"/>
    </linearGradient>
    <linearGradient id="linear-gradient-10" x1="0.5" x2="0.5" y2="1" gradientUnits="objectBoundingBox">
      <stop offset="0" stop-color="#c5c5c5"/>
      <stop offset="1" stop-color="#fff" stop-opacity="0"/>
    </linearGradient>
    <linearGradient id="linear-gradient-11" x1="0.5" x2="0.5" y2="1" gradientUnits="objectBoundingBox">
      <stop offset="0" stop-color="#dedede"/>
      <stop offset="1" stop-color="#a1a1a1"/>
    </linearGradient>
    <linearGradient id="linear-gradient-12" x1="0.5" x2="0.5" y2="1" gradientUnits="objectBoundingBox">
      <stop offset="0" stop-color="#fff"/>
      <stop offset="1" stop-color="#d5d5d5"/>
    </linearGradient>
    <linearGradient id="linear-gradient-13" x1="0.5" x2="0.5" y2="1" gradientUnits="objectBoundingBox">
      <stop offset="0" stop-color="#828282"/>
      <stop offset="1" stop-color="#434343"/>
    </linearGradient>
  </defs>
  <g id="暂无排名" transform="translate(-1436 -629)">
    <g id="暂无数据" transform="translate(1343 476)">
      <rect id="矩形_639" data-name="矩形 639" width="178" height="130" transform="translate(93 153)" fill="none"/>
      <g id="暂无数据-2" data-name="暂无数据" transform="translate(31.648 -170.376)">
        <g id="组_72" data-name="组 72" transform="translate(71.94 323.376)">
          <path id="路径_82" data-name="路径 82" d="M0,10.795,36.6,0V93.779L0,104.574Z" transform="translate(17.878 11.142)" fill="url(#linear-gradient)"/>
          <path id="路径_81" data-name="路径 81" d="M-8.492,10.642-26.361-.469v93.78l17.868,11.111Z" transform="translate(26.37 11.293)" fill="url(#linear-gradient-2)"/>
          <path id="路径_80" data-name="路径 80" d="M-8.5,5.55,28.106-5.3,10.228-16.437l-36.6,10.845Z" transform="translate(26.375 16.438)" fill="url(#linear-gradient-3)"/>
        </g>
        <g id="组_70" data-name="组 70" transform="translate(170.053 326.113)">
          <path id="路径_78" data-name="路径 78" d="M0,10.539,35.741,0V91.56L0,102.1Z" transform="translate(17.457 10.88)" fill="url(#linear-gradient-3)"/>
          <path id="路径_79" data-name="路径 79" d="M-8.913,10.38-26.361-.469V91.093l17.448,10.848Z" transform="translate(26.37 11.038)" fill="url(#linear-gradient-5)"/>
          <path id="路径_77" data-name="路径 77" d="M-8.918,5.032,26.823-5.558,9.366-16.437-26.375-5.848Z" transform="translate(26.375 16.438)" fill="url(#linear-gradient-3)"/>
        </g>
        <g id="组_71" data-name="组 71" transform="translate(101.968 354.568)">
          <path id="路径_74" data-name="路径 74" d="M0,9.137,30.839,0V79.381L0,88.519Z" transform="translate(15.062 9.387)" fill="url(#linear-gradient-7)"/>
          <path id="路径_75" data-name="路径 75" d="M-11.306,8.936l-15.054-9.4V78.913l15.054,9.4Z" transform="translate(26.369 9.588)" fill="url(#linear-gradient-2)"/>
          <path id="路径_76" data-name="路径 76" d="M-11.313,2.087,19.526-7.05,4.464-16.437-26.375-7.3Z" transform="translate(26.375 16.438)" fill="url(#linear-gradient-9)"/>
        </g>
        <path id="减去_26" data-name="减去 26" d="M178,53H0A51.361,51.361,0,0,1,10.453,32.048,74.532,74.532,0,0,1,30.195,15.237,103.3,103.3,0,0,1,57.089,4.058a127.515,127.515,0,0,1,63.823,0,103.3,103.3,0,0,1,26.894,11.179,74.532,74.532,0,0,1,19.741,16.811A51.363,51.363,0,0,1,178,53Z" transform="translate(61.352 399.925)" fill="url(#linear-gradient-10)"/>
      </g>
    </g>
    <g id="组_432" data-name="组 432">
      <path id="联合_69" data-name="联合 69" d="M27.15-3516.81l.218-.191H18.392a2,2,0,0,1-2-2v-45.441H15l1.781-1.753h.006a2,2,0,0,1,1.6-.805h12a2,2,0,0,1,2,2v46a2,2,0,0,1-.753,1.563l-1.787,1.826Z" transform="translate(1502.608 4247)" fill="url(#linear-gradient-11)"/>
      <path id="联合_70" data-name="联合 70" d="M27.15-3516.81l.218-.191H18.392a2,2,0,0,1-2-2v-28.441H15l1.781-1.753h.006a2,2,0,0,1,1.6-.805h12a2,2,0,0,1,2,2v29a2,2,0,0,1-.753,1.563l-1.787,1.826Z" transform="translate(1480.608 4247)" fill="url(#linear-gradient-12)"/>
      <path id="联合_71" data-name="联合 71" d="M27.15-3516.81l.218-.191H18.392a2,2,0,0,1-2-2v-19.441H15l1.781-1.753h.006a2,2,0,0,1,1.6-.805h12a2,2,0,0,1,2,2v20a2,2,0,0,1-.753,1.563l-1.787,1.826Z" transform="translate(1524.608 4247)" fill="url(#linear-gradient-13)"/>
      <rect id="矩形_861" data-name="矩形 861" width="16" height="24" rx="2" transform="translate(1539 708)" fill="#707070"/>
      <rect id="矩形_865" data-name="矩形 865" width="16" height="33" rx="2" transform="translate(1495 699)" fill="#fff"/>
      <rect id="矩形_862" data-name="矩形 862" width="16" height="50" rx="2" transform="translate(1517 682)" fill="#bebebe"/>
      <ellipse id="椭圆_414" data-name="椭圆 414" cx="27.5" cy="2" rx="27.5" ry="2" transform="translate(1498 735)" fill="#d8d8d8"/>
      <g id="组_430" data-name="组 430" transform="translate(441.205 -586.549) rotate(25)">
        <path id="联合_72" data-name="联合 72" d="M5.833,7H0V3.1L2.438,5.381,5,0,7.562,5.38,10,3.1V7Z" transform="translate(1543 676)" fill="#707070"/>
        <rect id="矩形_867" data-name="矩形 867" width="10" height="1" transform="translate(1543 684)" fill="#707070"/>
        <circle id="椭圆_415" data-name="椭圆 415" cx="1" cy="1" r="1" transform="translate(1547 674)" fill="#707070"/>
        <circle id="椭圆_416" data-name="椭圆 416" cx="1" cy="1" r="1" transform="translate(1542 677)" fill="#707070"/>
        <circle id="椭圆_417" data-name="椭圆 417" cx="1" cy="1" r="1" transform="translate(1552 677)" fill="#707070"/>
      </g>
    </g>
  </g>
</svg>
